<svg class="svg-icon" style="width: 1em; height: 1em;vertical-align: middle;fill: currentColor;overflow: hidden;" viewBox="0 0 1024 1024" version="1.1" xmlns="http://www.w3.org/2000/svg"><path d="M511.693015 127.296492c-212.22904 0-384.24303 172.01399-384.24303 384.24303s172.01399 385.266314 384.24303 385.266314S896.959328 723.768562 896.959328 511.539522 723.922055 127.296492 511.693015 127.296492zM737.122414 407.164585 465.235935 681.506945c-4.40012 4.40012-10.232837 6.651344-15.963226 6.651344-5.832717 0-11.563106-2.251224-15.963226-6.651344L295.063855 540.907765c-8.80024-8.80024-8.80024-23.126212 0-31.926451 8.80024-8.80024 23.126212-8.80024 31.926451 0l122.180074 122.180074 255.820925-255.820925c8.80024-8.80024 23.126212-8.80024 31.926451 0C745.922654 384.038373 745.922654 398.364345 737.122414 407.164585z"  /></svg>