<?xml version="1.0" encoding="UTF-8"?>
<!DOCTYPE svg PUBLIC "-//W3C//DTD SVG 1.1//EN" "http://www.w3.org/Graphics/SVG/1.1/DTD/svg11.dtd">
<!-- Creator: CorelDRAW 2021 (64-Bit) -->
<svg xmlns="http://www.w3.org/2000/svg" xml:space="preserve" width="79.375mm" height="79.375mm" version="1.1" style="shape-rendering:geometricPrecision; text-rendering:geometricPrecision; image-rendering:optimizeQuality; fill-rule:evenodd; clip-rule:evenodd"
viewBox="0 0 976.21 976.21"
 xmlns:xlink="http://www.w3.org/1999/xlink"
 xmlns:xodm="http://www.corel.com/coreldraw/odm/2003">
 <defs>
  <style type="text/css">
   <![CDATA[
    .fil0 {fill:red}
   ]]>
  </style>
 </defs>
 <g id="Layer_x0020_1">
  <metadata id="CorelCorpID_0Corel-Layer"/>
  <path class="fil0" d="M-0 444.01l0 91.93c10.74,24.05 11.54,61.34 20.45,89.98 24.64,79.2 67.87,152.63 122.63,207.22 133.27,132.85 261.32,125.78 300.93,143.08l84.46 0c35.51,-14.95 169.14,-9.06 302.46,-140.98 56.16,-55.57 99.71,-128.71 124.93,-209.24 8.55,-27.31 9.43,-68.74 20.37,-93.79l0 -84.46c-7.47,-17.74 -12.09,-69.31 -19.39,-94.21 -38.9,-132.6 -128.05,-239.15 -250.59,-300.77 -97.72,-49.14 -133.78,-36.31 -170.29,-52.78l-99.15 0 -26.2 6.9c-59.13,10.53 -87.56,19.59 -143.53,47.29 -100.14,49.57 -166.93,122.88 -217.16,221.56 -45.99,90.37 -34.33,132.36 -49.89,168.25zm422.53 123.85l131.74 1.8 15.37 -407.51 -161.8 0.04 14.69 405.67zm42.49 86.23c-101.89,29.23 -63.27,184.93 46.58,156.94 97.79,-24.92 65.72,-189.16 -46.58,-156.94z"/>
 </g>
</svg>
