<?xml version="1.0" encoding="UTF-8"?>
<!DOCTYPE svg PUBLIC "-//W3C//DTD SVG 1.1//EN" "http://www.w3.org/Graphics/SVG/1.1/DTD/svg11.dtd">
<!-- Creator: CorelDRAW 2021 (64-Bit) -->
<svg xmlns="http://www.w3.org/2000/svg" xml:space="preserve" width="17.861mm" height="9.7539mm" version="1.1" style="shape-rendering:geometricPrecision; text-rendering:geometricPrecision; image-rendering:optimizeQuality; fill-rule:evenodd; clip-rule:evenodd"
viewBox="0 0 38.49 21.02"
 xmlns:xlink="http://www.w3.org/1999/xlink"
 xmlns:xodm="http://www.corel.com/coreldraw/odm/2003">
 <defs>
  <style type="text/css">
   <![CDATA[
    .fil4 {fill:none}
    .fil1 {fill:#00D500}
    .fil3 {fill:#1B1C1E}
    .fil2 {fill:white}
    .fil0 {fill:white}
   ]]>
  </style>
   <clipPath id="id0">
    <path d="M3.04 0l32.41 0c1.67,0 3.04,1.37 3.04,3.04l0 14.94c0,1.67 -1.37,3.04 -3.04,3.04l-32.41 0c-1.67,0 -3.04,-1.37 -3.04,-3.04l0 -14.94c0,-1.67 1.37,-3.04 3.04,-3.04z"/>
   </clipPath>
 </defs>
 <g id="Layer_x0020_1">
  <metadata id="CorelCorpID_0Corel-Layer"/>
  <path class="fil0" d="M3.04 0l32.41 0c1.67,0 3.04,1.37 3.04,3.04l0 14.94c0,1.67 -1.37,3.04 -3.04,3.04l-32.41 0c-1.67,0 -3.04,-1.37 -3.04,-3.04l0 -14.94c0,-1.67 1.37,-3.04 3.04,-3.04z"/>
  <g style="clip-path:url(#id0)">
   <g id="_1661462039488">
    <g>
     <g>
      <path id="_1" class="fil1" d="M19.3 6.11c0.15,-0.3 -0.16,-0.51 0.85,-0.4 0.07,0.19 -0.01,0.33 -0.04,0.53 0.22,0.17 0.65,0.23 0.77,0.52 -0.04,0.14 -0.28,0.37 -0.41,0.42 -0.13,-0.04 -0.21,-0.13 -0.34,-0.2 -0.35,-0.19 -0.96,-0.27 -1.19,-0.02 -0.44,0.48 0.75,0.73 1.03,0.86 0.95,0.46 0.87,1.41 0.09,1.85 -0.39,0.22 -0.55,0.12 -0.77,0.24l-0.1 0.41c-0.99,0.07 -0.75,-0.02 -0.69,-0.52 -0.32,-0.13 -0.77,-0.29 -0.88,-0.57 -0,-0.01 0.26,-0.63 0.61,-0.32 0.56,0.49 1.58,0.4 1.55,-0.11 -0.04,-0.59 -1.88,-0.37 -1.75,-1.67 0.05,-0.48 0.41,-0.78 0.82,-0.89 0.08,-0.02 0.14,-0.03 0.23,-0.04l0.22 -0.07zm-3.59 0.21l0 3.51c0,1.08 0.73,1.75 1.79,1.75l3.51 0c1.04,0 1.75,-0.65 1.75,-1.75l0 -3.67c0,-1.07 -0.77,-1.67 -1.75,-1.67l-3.47 0c-1.16,0 -1.83,0.68 -1.83,1.83z"/>
      <path class="fil2" d="M19.3 6.11l-0.22 0.07c-0.09,0.02 -0.16,0.02 -0.23,0.04 -0.41,0.12 -0.78,0.41 -0.82,0.89 -0.13,1.3 1.71,1.09 1.75,1.67 0.03,0.52 -0.99,0.6 -1.55,0.11 -0.35,-0.31 -0.61,0.32 -0.61,0.32 0.11,0.28 0.56,0.43 0.88,0.57 -0.06,0.5 -0.3,0.59 0.69,0.52l0.1 -0.41c0.22,-0.12 0.38,-0.02 0.77,-0.24 0.78,-0.44 0.86,-1.39 -0.09,-1.85 -0.28,-0.14 -1.46,-0.39 -1.03,-0.86 0.23,-0.25 0.83,-0.17 1.19,0.02 0.13,0.07 0.2,0.16 0.34,0.2 0.14,-0.05 0.37,-0.28 0.41,-0.42 -0.12,-0.29 -0.54,-0.35 -0.77,-0.52 0.03,-0.2 0.11,-0.34 0.04,-0.53 -1.01,-0.11 -0.7,0.1 -0.85,0.4z"/>
     </g>
     <path class="fil3" d="M22.53 12.7c0.01,0.15 0.41,1.33 0.48,1.48l-1 0c0.06,-0.24 0.16,-0.51 0.24,-0.75l0.27 -0.72zm-8.13 1c0,1.25 1.59,0.62 1.59,1.24 0,0.32 -0.73,0.27 -0.99,0.15 -0.07,-0.03 -0.23,-0.15 -0.33,-0.15 -0.14,0 -0.29,0.23 -0.32,0.36 0.38,0.56 2.27,0.75 2.27,-0.52 0,-0.43 -0.33,-0.58 -0.63,-0.68 -0.48,-0.16 -0.81,-0.07 -1,-0.35 0.15,-0.63 1.22,-0.04 1.24,-0.04 0.12,0 0.1,-0.05 0.16,-0.12 0.2,-0.23 0.19,-0.33 -0.24,-0.52 -0.57,-0.25 -1.76,-0.17 -1.76,0.64zm-1.99 1.28c0,-0.28 -0.04,-0.38 0.42,-0.46 0.23,-0.04 0.37,-0.05 0.54,-0.14 0,0.39 0,0.59 -0.25,0.74 -0.18,0.11 -0.7,0.11 -0.7,-0.15zm-0.52 -1.71c0,0.15 0.13,0.34 0.2,0.44 0.42,-0.1 0.18,-0.2 0.96,-0.2 0.18,0 0.32,0.09 0.32,0.28 0,0.47 -1.63,-0.03 -1.63,1.16 0,0.66 0.78,0.96 1.38,0.7 0.16,-0.07 0.16,-0.14 0.29,-0.22 0,0.12 0.02,0.15 0.04,0.24 0.76,0 0.6,0.27 0.6,-1.79 0,-1.46 -2.15,-0.81 -2.15,-0.6zm5.1 -1l0 3.23c0,0.21 0.26,0.16 0.52,0.16 0.22,0 0.16,-0.3 0.16,-0.52 -0,-0.23 0,-0.45 0,-0.68 -0,-0.56 -0.03,-0.92 0.64,-0.92 0.78,0 0.04,2.11 0.52,2.11 0.68,0 0.52,0.22 0.52,-1.79 0,-0.48 -0.32,-0.92 -0.8,-0.92 -0.6,0 -0.5,0.06 -0.88,0.32 0,-1.34 0.18,-1.2 -0.64,-1.2 -0.02,0.09 -0.04,0.09 -0.04,0.2zm-8.65 1.6c0,1.87 2.13,2.45 3.08,1.25 0.21,-0.27 0.14,-0.26 -0.37,-0.53 -0.4,0.38 -0.37,0.52 -1.04,0.52 -1.26,0 -1.27,-2.47 0,-2.47 0.75,0 0.62,0.2 1.04,0.48 0.18,-0.04 0.36,-0.19 0.48,-0.32 -0.16,-0.3 -0.24,-0.37 -0.53,-0.55 -0.98,-0.63 -2.66,-0.06 -2.66,1.63zm16.79 0.52c0,-1.19 1.32,-1.16 1.32,-0.04 0,1.12 -1.32,1.01 -1.32,0.04zm0 -1.08c0,-0.32 -0.08,-0.41 -0.64,-0.28 -0.1,0.41 -0.04,2.67 -0.04,3.27 0,0.3 0.16,0.24 0.52,0.24 0.21,0 0.16,-0.26 0.16,-0.48 -0,-0.23 -0,-0.45 -0,-0.68 0.1,0.07 0.35,0.36 0.76,0.36 0.74,0 1.24,-0.62 1.24,-1.28l0 -0.28c0,-0.58 -0.48,-1.24 -1.04,-1.24 -0.42,0 -0.64,-0.01 -0.96,0.36zm3.03 1.08c0,-1.19 1.32,-1.16 1.32,-0.04 0,0.93 -0.88,0.96 -1.15,0.55 -0.08,-0.13 -0.16,-0.31 -0.16,-0.51zm0 -1.08c0,-0.32 -0.08,-0.41 -0.64,-0.28 -0.1,0.41 -0.04,2.67 -0.04,3.27 0,0.3 0.16,0.24 0.52,0.24 0.21,0 0.16,-0.26 0.16,-0.48 -0,-0.23 -0,-0.45 -0,-0.68 0.14,0.09 0.14,0.16 0.32,0.24 0.89,0.41 1.68,-0.36 1.68,-1.16l0 -0.28c0,-0.58 -0.48,-1.24 -1.04,-1.24 -0.42,0 -0.64,-0.01 -0.96,0.36zm-7.3 2.23c0,0.17 0.17,0.12 0.56,0.12 0.19,0 0.39,-0.83 0.4,-0.88l1.36 0c0.43,0.9 -0.03,0.88 0.88,0.88 0.24,0 0.12,-0.24 0.06,-0.38 -0.35,-0.87 -0.68,-1.9 -1.03,-2.8 -0.19,-0.48 -0.02,-0.41 -0.87,-0.41 -0.14,0 -0.16,0.18 -0.23,0.36l-0.81 2.18c-0.06,0.16 -0.31,0.77 -0.31,0.92z"/>
    </g>
   </g>
  </g>
  <path class="fil4" d="M3.04 0l32.41 0c1.67,0 3.04,1.37 3.04,3.04l0 14.94c0,1.67 -1.37,3.04 -3.04,3.04l-32.41 0c-1.67,0 -3.04,-1.37 -3.04,-3.04l0 -14.94c0,-1.67 1.37,-3.04 3.04,-3.04z"/>
 </g>
</svg>
